<svg width="1600" height="1000" viewBox="0 0 1600 1000" fill="none" xmlns="http://www.w3.org/2000/svg">
  <rect width="1600" height="1000" fill="#0F0F12"/>
  <rect x="96" y="88" width="1408" height="824" rx="28" fill="url(#bg1)"/>
  <rect x="200" y="180" width="720" height="560" rx="24" fill="#201819"/>
  <rect x="264" y="236" width="178" height="454" rx="18" fill="#2D1B1C"/>
  <rect x="474" y="236" width="178" height="454" rx="18" fill="#2A1A1B"/>
  <rect x="684" y="236" width="178" height="454" rx="18" fill="#2E1D1E"/>
  <rect x="1018" y="212" width="364" height="248" rx="22" fill="#1A212B"/>
  <path d="M1048 430L1188 274L1350 430" stroke="#89A2C7" stroke-width="20" stroke-linecap="round" stroke-linejoin="round"/>
  <rect x="1028" y="508" width="316" height="118" rx="20" fill="#3A2425"/>
  <ellipse cx="1184" cy="566" rx="78" ry="44" fill="#5B1F25"/>
  <ellipse cx="1184" cy="558" rx="62" ry="30" fill="#A24A53"/>
  <rect x="1171" y="498" width="26" height="70" rx="12" fill="#D8D0C9"/>
  <circle cx="1320" cy="690" r="58" fill="#A8844D"/>
  <circle cx="1320" cy="690" r="30" fill="#E7D1A0"/>
  <text x="1028" y="774" fill="#F8EBD2" font-size="56" font-family="Georgia, serif">닫힌 서재와 열린 창문</text>
  <text x="1028" y="836" fill="#C9BBA6" font-size="28" font-family="Arial, sans-serif">밀실처럼 보이는 방, 와인잔 하나, 그리고 유산을 둘러싼 밤.</text>
  <defs>
    <linearGradient id="bg1" x1="172" y1="120" x2="1422" y2="884" gradientUnits="userSpaceOnUse">
      <stop stop-color="#3C2322"/>
      <stop offset="1" stop-color="#171A22"/>
    </linearGradient>
  </defs>
</svg>
